Coordinates
version=1
nRows=16
nColumns=40
inDegrees=yes

Units are S.I. units (second, meters, Newtons, ...)
Angles are in degrees.

endheader
time	pelvis_tilt	pelvis_list	pelvis_rotation	pelvis_tx	pelvis_ty	pelvis_tz	hip_flexion_r	hip_adduction_r	hip_rotation_r	knee_angle_r	knee_angle_r_beta	ankle_angle_r	subtalar_angle_r	mtp_angle_r	hip_flexion_l	hip_adduction_l	hip_rotation_l	knee_angle_l	knee_angle_l_beta	ankle_angle_l	subtalar_angle_l	mtp_angle_l	lumbar_extension	lumbar_bending	lumbar_rotation	arm_flex_r	arm_add_r	arm_rot_r	elbow_flex_r	pro_sup_r	wrist_flex_r	wrist_dev_r	arm_flex_l	arm_add_l	arm_rot_l	elbow_flex_l	pro_sup_l	wrist_flex_l	wrist_dev_l
     39.34250000	     -6.35634349	     -5.50077560	     -5.72563739	      0.94302178	      0.91904035	      0.42508613	     23.40836306	     -5.25393567	     -1.14375727	     60.20820507	     60.20820507	      2.78514505	    -13.82769757	     -1.77754780	     19.14589892	     -5.63865269	     -3.99528085	     30.89181368	     30.89181368	     19.31835208	    -16.35752440	      7.11012485	     -9.71598577	      5.28523256	      3.12676688	      4.39738829	    -12.30528727	    -12.25799992	     21.97312708	     46.84987807	      0.00000000	      0.00000000	     26.59185387	    -16.05996347	      2.53620652	     43.37173774	     46.33624252	      0.00000000	      0.00000000
     39.35985714	     -6.45160015	     -5.48221434	     -6.35698204	      0.94170235	      0.92018702	      0.42546922	     24.64277673	     -4.96853421	     -0.84521005	     60.03551592	     60.03551592	      3.44205013	    -13.97262119	     -1.19040943	     18.45026672	     -5.74962648	     -4.67532714	     30.13863685	     30.13863685	     19.32125017	    -16.19855932	      7.11549993	     -9.81886184	      5.35342949	      3.01386983	      2.47216154	    -12.38284412	    -12.33345703	     21.45891920	     46.86702782	      0.00000000	      0.00000000	     27.24497635	    -16.33455372	      1.43227780	     44.65178451	     46.46480100	      0.00000000	      0.00000000
     39.37721429	     -6.70624903	     -5.58491910	     -6.94575558	      0.94026746	      0.92164847	      0.42617148	     25.78785997	     -4.57134334	     -0.82216854	     59.04052384	     59.04052384	      4.12477691	    -13.91840599	     -1.18958992	     17.83645135	     -5.99012569	     -5.23977764	     29.20827235	     29.20827235	     19.26499858	    -15.97440285	      7.26781988	     -9.70975624	      5.54519183	      2.64024344	      0.80029813	    -12.44861992	    -12.39585269	     20.97976237	     46.87918196	      0.00000000	      0.00000000	     27.80744910	    -16.87861121	      0.91467238	     45.25570111	     46.52625772	      0.00000000	      0.00000000
     39.39457143	     -6.88777914	     -5.62994759	     -7.62950591	      0.93895933	      0.92351342	      0.42713049	     26.63420606	     -4.17944186	     -0.75552130	     57.27080852	     57.27080852	      4.95916603	    -13.72332993	     -1.34518600	     16.95493976	     -6.20135403	     -6.06714766	     27.96172666	     27.96172666	     18.88139835	    -15.67077379	      6.73849229	     -9.81590975	      5.69577682	      2.78066525	     -1.39657944	    -12.59294905	    -12.66301247	     21.82547887	     46.85387640	      0.00000000	      0.00000000	     27.73370270	    -16.48307985	     -2.49113401	     48.47400942	     46.87518217	      0.00000000	      0.00000000
     39.41192857	     -7.08578989	     -5.67931833	     -8.27335093	      0.93761928	      0.92571456	      0.42839505	     27.22215319	     -3.78719174	     -0.84532951	     54.70292254	     54.70292254	      5.80741535	    -13.24124069	     -1.63614359	     15.98359271	     -6.37461087	     -6.80795694	     26.50325402	     26.50325402	     18.64220795	    -15.31017734	      6.96498729	     -9.79154427	      5.82701516	      2.59363998	     -2.81803462	    -12.68129891	    -12.69754320	     21.57441529	     46.85599295	      0.00000000	      0.00000000	     28.23858971	    -16.85160679	     -3.19872042	     49.24017449	     46.94964287	      0.00000000	      0.00000000
     39.42928571	     -7.40178455	     -5.75570657	     -8.92817998	      0.93620417	      0.92773207	      0.42991031	     27.62762922	     -3.37400314	     -1.10538587	     51.28598857	     51.28598857	      5.97853450	    -12.64603813	     -4.03319443	     15.07906710	     -6.59533835	     -7.59342218	     24.91789955	     24.91789955	     18.01324900	    -14.98765376	      6.28628528	     -9.77257580	      5.99915834	      2.52802636	     -4.76144327	    -12.76276853	    -12.83818566	     22.94276197	     46.79052903	      0.00000000	      0.00000000	     28.02155014	    -16.62777624	     -6.39173468	     52.13173019	     47.24692105	      0.00000000	      0.00000000
     39.44664286	     -7.78276191	     -5.84749716	     -9.53072469	      0.93476692	      0.92962889	      0.43169993	     27.87703108	     -2.86802458	     -1.42020262	     47.34835798	     47.34835798	      6.74089859	    -11.46360203	     -4.23304826	     14.26806248	     -6.82860722	     -8.29661936	     23.39132506	     23.39132506	     17.75383914	    -14.50405436	      6.55403040	     -9.54597323	      6.22178253	      2.45114726	     -5.92835409	    -12.83436605	    -12.83965299	     22.73751846	     46.78845930	      0.00000000	      0.00000000	     28.45608080	    -16.97085444	     -6.77585790	     52.74097915	     47.28698318	      0.00000000	      0.00000000
     39.46400000	     -8.02337256	     -5.86485323	    -10.13098553	      0.93347633	      0.93137600	      0.43369818	     27.65048971	     -2.52111506	     -1.95290731	     42.68046842	     42.68046842	      6.67216104	     -9.74338798	     -6.83387158	     13.21380116	     -6.95242486	     -9.11508049	     21.67596942	     21.67596942	     17.11164314	    -14.04167364	      5.80106219	     -9.59162287	      6.26787016	      2.44507030	     -7.61256775	    -12.86543651	    -12.79223024	     24.36775048	     46.68873081	      0.00000000	      0.00000000	     28.27777376	    -16.86231332	     -9.07141405	     55.55856087	     47.48840178	      0.00000000	      0.00000000
     39.48135714	     -8.28972442	     -5.86130151	    -10.70238032	      0.93221868	      0.93268713	      0.43599025	     27.29845698	     -2.08233628	     -2.47056537	     37.80988712	     37.80988712	      7.09738169	     -7.32655649	     -6.90684924	     12.26594344	     -7.05549086	     -9.88752568	     20.13094444	     20.13094444	     16.86655742	    -13.48109255	      5.84097895	     -9.48556424	      6.31105749	      2.60106467	     -8.67014124	    -12.85615796	    -12.70129619	     24.38966455	     46.66800729	      0.00000000	      0.00000000	     28.75347680	    -17.06521800	     -9.50735513	     56.50994255	     47.53254728	      0.00000000	      0.00000000
     39.49871429	     -8.57462264	     -5.77223389	    -11.17584086	      0.93104056	      0.93336172	      0.43839898	     26.80267992	     -1.74769774	     -3.23954669	     32.76414727	     32.76414727	      7.38285244	     -4.20538606	     -6.70891501	     11.44587294	     -7.07568575	    -10.62961842	     18.73364698	     18.73364698	     16.51048704	    -12.90440159	      5.45009197	     -9.34766836	      6.28960005	      2.72529675	     -9.81480122	    -12.85088532	    -12.63169547	     24.93720573	     46.62268060	      0.00000000	      0.00000000	     28.96965867	    -17.16490804	    -10.25933118	     58.04936513	     47.60482073	      0.00000000	      0.00000000
     39.51607143	     -8.75405194	     -5.68852304	    -11.60770330	      0.93002751	      0.93357606	      0.44110414	     26.07723021	     -1.28442003	     -3.87453648	     27.74348484	     27.74348484	      7.35185808	     -1.05813750	     -5.76343968	     10.62773832	     -7.09529652	    -11.28114221	     17.59040017	     17.59040017	     16.37479446	    -12.40781395	      5.04918525	     -9.29603912	      6.22821630	      2.83159464	    -10.66908448	    -12.72580407	    -12.56839375	     25.26477696	     46.59155131	      0.00000000	      0.00000000	     29.34444649	    -17.37490992	    -10.76403357	     59.22287953	     47.65698505	      0.00000000	      0.00000000
     39.53342857	     -8.96559821	     -5.43676497	    -11.96463513	      0.92919684	      0.93300715	      0.44386508	     25.61734853	     -1.05749518	     -4.81561422	     23.53141865	     23.53141865	      8.08298149	      2.97475879	     -2.06248975	      9.83499037	     -6.91147390	    -11.88921502	     16.29666976	     16.29666976	     15.43129690	    -12.25737957	      2.64309815	     -9.13577548	      6.01334273	      2.66812038	    -11.76305828	    -12.69938661	    -11.61485609	     26.84667368	     46.42188908	      0.00000000	      0.00000000	     29.07979138	    -17.46702593	    -12.26768834	     61.61374652	     47.76796712	      0.00000000	      0.00000000
     39.55078571	     -9.13542025	     -5.17721567	    -12.21736702	      0.92856695	      0.93203546	      0.44694517	     25.03120017	     -0.67113425	     -5.34723756	     19.49480326	     19.49480326	      7.49633223	      5.66936603	     -0.76870579	      9.23979512	     -6.76146444	    -12.34831659	     15.53829901	     15.53829901	     15.53041863	    -11.81844118	      2.34720126	     -8.88680811	      5.76175553	      2.78093862	    -12.34023675	    -12.46954524	    -11.50573472	     26.73362634	     46.41155316	      0.00000000	      0.00000000	     29.52845473	    -17.58502793	    -12.39393162	     62.25483635	     47.78807345	      0.00000000	      0.00000000
     39.56814286	     -9.11886629	     -4.82817601	    -12.41266388	      0.92833119	      0.93083276	      0.45006396	     24.49402725	     -0.50039496	     -6.13533325	     16.42041370	     16.42041370	      7.09411096	      8.63308677	      0.82130342	      8.45529522	     -6.47908888	    -12.91131087	     14.79200554	     14.79200554	     15.60766865	    -11.24400414	      1.67270437	     -8.84583273	      5.43207792	      2.97746686	    -12.86533275	    -12.25862945	    -11.38192197	     26.69978781	     46.39698888	      0.00000000	      0.00000000	     29.94450190	    -17.66088040	    -12.66044974	     63.17435524	     47.82192750	      0.00000000	      0.00000000
     39.58550000	     -9.07028933	     -4.43848064	    -12.53621492	      0.92836553	      0.92943076	      0.45326910	     24.21196904	     -0.44197830	     -6.97310960	     14.43083174	     14.43083174	      6.90529556	     11.27237770	      2.85885131	      7.68175110	     -6.16261733	    -13.49143937	     14.11107353	     14.11107353	     15.54216603	    -10.65135158	      0.45905966	     -8.77188081	      5.08174321	      3.07941824	    -13.24666320	    -12.01987761	    -11.18256463	     26.73896492	     46.37455726	      0.00000000	      0.00000000	     30.16695120	    -17.64179143	    -13.13997373	     64.31494244	     47.87088370	      0.00000000	      0.00000000
     39.60285714	     -9.18486811	     -4.09340991	    -12.58755362	      0.92851188	      0.92773889	      0.45664510	     24.35952082	     -0.32065946	     -7.44425008	     13.48354940	     13.48354940	      7.13846163	     12.72099349	      5.89355469	      7.11623883	     -5.92555062	    -13.83887934	     13.44260504	     13.44260504	     14.91529960	    -10.51255565	     -1.97155378	     -8.50394078	      4.83229231	      2.81513142	    -13.28895191	    -11.92457791	    -10.46077809	     26.63235646	     46.32310256	      0.00000000	      0.00000000	     29.85729938	    -17.67764954	    -14.37416003	     65.79370109	     47.95808760	      0.00000000	      0.00000000
